<svg width="55" height="64" viewBox="0 0 55 64" fill="none" xmlns="http://www.w3.org/2000/svg">
<path d="M53.701 1H1V62.5291H53.701V1Z" stroke="#59738C" stroke-width="2" stroke-linecap="round" stroke-linejoin="round"/>
<path d="M45.0142 17.8008H9.68384V23.1957H45.0142V17.8008Z" stroke="#59738C" stroke-width="2" stroke-linecap="round" stroke-linejoin="round"/>
<path d="M41.3972 45.7276H13.4055C13.2292 45.729 13.0595 45.6696 12.9334 45.5624C12.8074 45.4552 12.7353 45.309 12.7329 45.1556V27.7227C12.7329 27.8813 12.7837 29.6986 14.9031 33.4816C14.9031 33.4816 16.4845 35.6942 14.4069 35.6942H42.0698" stroke="#59738C" stroke-width="2" stroke-linecap="round" stroke-linejoin="round"/>
<path d="M14.4069 35.6941C16.4995 35.6941 14.9031 33.4815 14.9031 33.4815C12.7837 29.7012 12.7449 27.8813 12.7449 27.7227" stroke="#59738C" stroke-width="2" stroke-linecap="round" stroke-linejoin="round"/>
<path d="M15.1365 40.7097C16.2515 40.7097 15.1992 39.0665 15.1992 39.0665C13.1815 36.7993 12.748 35.6865 12.748 35.6865H42.0849" stroke="#59738C" stroke-width="2" stroke-linecap="round" stroke-linejoin="round"/>
<path d="M42.0698 40.71H12.7449C12.7449 40.71 13.1783 41.8176 15.1961 44.0901C15.1961 44.0901 16.2483 45.736 15.1333 45.736" stroke="#59738C" stroke-width="2" stroke-linecap="round" stroke-linejoin="round"/>
<path d="M43.4808 35.6943H43.2895H42.0699H41.4182" stroke="#59738C" stroke-width="2" stroke-linecap="round" stroke-linejoin="round"/>
<path d="M42.0698 35.6943C42.4435 36.2403 42.9905 37.439 43.8634 39.0744C43.8634 39.0744 44.9156 40.7177 43.8006 40.7177" stroke="#59738C" stroke-width="2" stroke-linecap="round" stroke-linejoin="round"/>
<path d="M40.7456 45.728H43.8066C44.9216 45.728 43.8694 44.0822 43.8694 44.0822C43.1938 42.725 42.4435 41.2586 42.0758 40.7021" stroke="#59738C" stroke-width="2" stroke-linecap="round" stroke-linejoin="round"/>
<path d="M41.4182 40.71H42.0699H43.8066" stroke="#59738C" stroke-width="2" stroke-linecap="round" stroke-linejoin="round"/>
<path d="M12.7329 23.1963V27.7229" stroke="#59738C" stroke-width="2" stroke-linecap="round" stroke-linejoin="round"/>
<path d="M41.6153 23.2012V27.7148C41.6153 27.7148 41.5645 29.5218 43.7855 33.4867C43.7855 33.4867 45.3669 35.6993 43.2894 35.6993" stroke="#59738C" stroke-width="2" stroke-linecap="round" stroke-linejoin="round"/>
<path d="M38.0164 23.1963V39.0511" stroke="#59738C" stroke-width="2" stroke-linecap="round" stroke-linejoin="round"/>
<path d="M39.0537 39.9503C39.0537 39.4535 38.5906 39.0508 38.0194 39.0508C37.4482 39.0508 36.9851 39.4535 36.9851 39.9503V40.9747C36.9851 41.4715 37.4482 41.8743 38.0194 41.8743C38.5906 41.8743 39.0537 41.4715 39.0537 40.9747V39.9503Z" fill="white" stroke="#59738C" stroke-width="2" stroke-linecap="round" stroke-linejoin="round"/>
<path d="M53.7011 9.56189L48.7778 5.27964L43.8574 1H53.7011V9.56189Z" stroke="#59738C" stroke-width="2" stroke-linecap="round" stroke-linejoin="round"/>
</svg>
