<svg width="46" height="65" viewBox="0 0 46 65" fill="none" xmlns="http://www.w3.org/2000/svg">
<path d="M39 35.7826C39.5 35.3475 40.1877 35.4504 40.8168 35.1725C43.7529 33.876 42.4946 32.8573 42.4946 32.8573C36.8322 32.8573 37.2516 27.2082 37.2516 27.2082V16.7434V15.5395V13.5948C37.2516 10.0756 35.6787 6.92694 33.0572 4.70434C30.4358 2.38913 26.8705 1 22.8859 1C14.9166 1 8.625 6.92694 8.625 13.9652V14.7987V17.3917V26.8378C8.625 31.0051 4.64035 31.3756 4.01119 32.9499C3.48689 34.2464 7.00009 34.4772 7.5 35.3475" stroke="#59738C" stroke-width="2" stroke-miterlimit="10" stroke-linecap="round" stroke-linejoin="round"/>
<path d="M23.0963 32.1169C20.6845 32.1169 19.4262 30.6352 19.4262 30.6352C19.4262 30.6352 17.0144 28.5052 14.4978 26.7456C11.9812 24.9861 12.2957 20.8186 12.2957 20.8186C8.31108 19.6147 7.9965 14.336 10.1986 13.4099C12.4006 12.4838 13.1346 15.7252 13.1346 15.7252C13.1346 15.7252 20.6845 14.5212 22.2574 10.4464C22.2574 10.4464 22.3622 9.05731 24.9837 9.70557C27.6052 10.3538 33.3725 11.8356 33.1627 15.7252C33.1627 15.7252 33.8968 12.5764 36.0988 13.4099C38.3009 14.2434 37.9863 19.6147 34.0016 20.8186C34.0016 20.8186 34.3162 24.9861 31.7996 26.7456C29.283 28.5052 26.8712 30.6352 26.8712 30.6352C26.8712 30.6352 25.4032 32.1169 23.0963 32.1169Z" stroke="#59738C" stroke-width="2" stroke-miterlimit="10" stroke-linecap="round" stroke-linejoin="round"/>
<path d="M17.4336 33.7838V29.1533" stroke="#59738C" stroke-width="2" stroke-miterlimit="10" stroke-linecap="round" stroke-linejoin="round"/>
<path d="M20.2651 40.6361L17.4339 33.7832C17.4339 33.7832 14.8124 34.3388 13.5541 35.4501C13.2395 35.7279 13.0298 36.0058 12.8201 36.2836C12.1909 37.8579 11.7715 39.8026 11.7715 39.8026C11.7715 39.8026 12.4591 40.7287 15.5 40.6361" stroke="#59738C" stroke-width="2" stroke-miterlimit="10" stroke-linecap="round" stroke-linejoin="round"/>
<path d="M28.5488 33.7838V29.1533" stroke="#59738C" stroke-width="2" stroke-miterlimit="10" stroke-linecap="round" stroke-linejoin="round"/>
<path d="M30.6462 40.636C33.6871 40.7286 34.2114 39.7099 34.2114 39.7099C34.2114 39.7099 33.7919 37.8578 33.1628 36.1908C33.0579 35.913 32.8482 35.6352 32.4288 35.3574C31.0656 34.2461 28.549 33.6904 28.549 33.6904L25.7178 40.5434" stroke="#59738C" stroke-width="2" stroke-miterlimit="10" stroke-linecap="round" stroke-linejoin="round"/>
<path d="M4.5 57.8613H1V43.5996C1 40.2657 3.30691 37.3948 6.55755 36.0983C7.711 35.6353 8.96931 35.3574 10.3325 35.3574H13.5" stroke="#59738C" stroke-width="2" stroke-miterlimit="10" stroke-linecap="round" stroke-linejoin="round"/>
<path d="M41.342 40.6367H4.74609V60.5476H41.342V40.6367Z" stroke="#59738C" stroke-width="2" stroke-miterlimit="10" stroke-linecap="round" stroke-linejoin="round"/>
<path d="M38.8252 63.6033H7.15763C5.27016 63.6033 3.69727 62.214 3.69727 60.5469H42.4952C42.3904 62.214 40.8175 63.6033 38.8252 63.6033Z" stroke="#59738C" stroke-width="2" stroke-miterlimit="10" stroke-linecap="round" stroke-linejoin="round"/>
<path d="M23.0966 51.7495C23.8494 51.7495 24.4597 51.2105 24.4597 50.5457C24.4597 49.8808 23.8494 49.3418 23.0966 49.3418C22.3437 49.3418 21.7334 49.8808 21.7334 50.5457C21.7334 51.2105 22.3437 51.7495 23.0966 51.7495Z" stroke="#59738C" stroke-width="2" stroke-miterlimit="10" stroke-linecap="round" stroke-linejoin="round"/>
<path d="M41.5 57.8618H44.3811V43.6C44.3811 39.0622 40.1867 35.3579 35.0486 35.3579L32.5 35.3477" stroke="#59738C" stroke-width="2" stroke-miterlimit="10" stroke-linecap="round" stroke-linejoin="round"/>
</svg>
