<svg width="124" height="79" viewBox="0 0 124 79" fill="none" xmlns="http://www.w3.org/2000/svg">
<path fill-rule="evenodd" clip-rule="evenodd" d="M53.2091 0.86896C53.2399 0.389047 53.7118 0.0216765 54.2633 0.0484159L122.628 3.36334C123.18 3.39008 123.602 3.8008 123.571 4.28072L118.862 77.839C118.831 78.319 118.359 78.6863 117.808 78.6596L49.4426 75.3447C48.8911 75.3179 48.469 74.9072 48.4997 74.4273L53.2091 0.86896ZM55.1505 1.83475L50.5523 73.6552L116.92 76.8733L121.519 5.05284L55.1505 1.83475Z" fill="#BBA390"/>
<path fill-rule="evenodd" clip-rule="evenodd" d="M48.5092 12.0061C48.6798 12.4632 48.3922 12.9541 47.8669 13.1025L29.6545 18.2485L43.5273 54.4676C43.7019 54.9235 43.4188 55.4164 42.8948 55.5684C42.3709 55.7204 41.8046 55.474 41.6299 55.018L27.4384 17.9668C27.3541 17.7468 27.3743 17.5065 27.4944 17.2994C27.6146 17.0923 27.8247 16.9355 28.0783 16.8639L47.2493 11.4471C47.7746 11.2986 48.3387 11.5489 48.5092 12.0061Z" fill="#BBA390"/>
<path fill-rule="evenodd" clip-rule="evenodd" d="M24.0939 23.6651C24.2894 24.1146 24.0291 24.6169 23.5126 24.787L15.3771 27.4659L44.2021 73.1725C44.4679 73.5939 44.2908 74.1229 43.8066 74.3542C43.3225 74.5854 42.7146 74.4313 42.4489 74.01L13.07 27.4252C12.9307 27.2042 12.9082 26.9416 13.0085 26.7051C13.1088 26.4687 13.3219 26.2817 13.5928 26.1925L22.8048 23.1591C23.3213 22.989 23.8985 23.2155 24.0939 23.6651Z" fill="#BBA390"/>
<path fill-rule="evenodd" clip-rule="evenodd" d="M10.5278 35.6028C10.8488 35.9939 10.7447 36.5374 10.2953 36.8168L2.54182 41.6365L35.3186 70.1611C35.7091 70.5009 35.7091 71.052 35.3186 71.3918C34.928 71.7317 34.2949 71.7317 33.9043 71.3918L0.292897 42.1408C0.0850415 41.96 -0.020834 41.7086 0.00341132 41.4537C0.0276567 41.1987 0.179567 40.966 0.418766 40.8173L9.13284 35.4005C9.58226 35.1211 10.2068 35.2117 10.5278 35.6028Z" fill="#BBA390"/>
<path fill-rule="evenodd" clip-rule="evenodd" d="M63.1089 9.76349C63.1396 9.28358 63.6116 8.91621 64.1631 8.94295L112.889 11.3056C113.44 11.3323 113.862 11.7431 113.832 12.223L112.197 37.7521C112.166 38.232 111.694 38.5994 111.143 38.5727L62.4173 36.21C61.8659 36.1833 61.4437 35.7726 61.4745 35.2927L63.1089 9.76349ZM65.0503 10.7293L63.5271 34.5205L110.256 36.7863L111.779 12.9951L65.0503 10.7293Z" fill="#BBA390"/>
<path fill-rule="evenodd" clip-rule="evenodd" d="M72.7017 45.5922C72.7319 45.1123 73.2035 44.7446 73.7549 44.7709L110.105 46.5042C110.657 46.5305 111.079 46.9409 111.049 47.4208C111.019 47.9007 110.547 48.2684 109.996 48.2421L73.6455 46.5087C73.0941 46.4824 72.6715 46.0721 72.7017 45.5922Z" fill="#BBA390"/>
<path fill-rule="evenodd" clip-rule="evenodd" d="M71.9548 55.1281C71.9838 54.6482 72.4544 54.2797 73.006 54.3049L87.1975 54.9548C87.7491 54.9801 88.1726 55.3896 88.1436 55.8695C88.1146 56.3493 87.644 56.7179 87.0924 56.6926L72.9008 56.0427C72.3493 56.0175 71.9257 55.608 71.9548 55.1281Z" fill="#BBA390"/>
<path fill-rule="evenodd" clip-rule="evenodd" d="M70.9593 64.6569C70.993 64.1772 71.4673 63.8121 72.0185 63.8415L96.418 65.1415C96.9693 65.1709 97.3888 65.5836 97.355 66.0633C97.3213 66.543 96.847 66.9081 96.2958 66.8787L71.8963 65.5787C71.3451 65.5493 70.9255 65.1366 70.9593 64.6569Z" fill="#BBA390"/>
<path fill-rule="evenodd" clip-rule="evenodd" d="M64.7372 42.8284C63.502 42.8284 62.5006 43.6998 62.5006 44.7748C62.5006 45.8498 63.502 46.7212 64.7372 46.7212C65.9725 46.7212 66.9739 45.8498 66.9739 44.7748C66.9739 43.6998 65.9725 42.8284 64.7372 42.8284ZM60.5006 44.7748C60.5006 42.7386 62.3974 41.0879 64.7372 41.0879C67.0771 41.0879 68.9739 42.7386 68.9739 44.7748C68.9739 46.811 67.0771 48.4617 64.7372 48.4617C62.3974 48.4617 60.5006 46.811 60.5006 44.7748Z" fill="#BBA390"/>
<path fill-rule="evenodd" clip-rule="evenodd" d="M63.9904 62.761C62.7552 62.761 61.7538 63.6325 61.7538 64.7075C61.7538 65.7825 62.7552 66.654 63.9904 66.654C65.2257 66.654 66.2271 65.7825 66.2271 64.7075C66.2271 63.6325 65.2257 62.761 63.9904 62.761ZM59.7538 64.7075C59.7538 62.6712 61.6506 61.0205 63.9904 61.0205C66.3302 61.0205 68.2271 62.6712 68.2271 64.7075C68.2271 66.7438 66.3302 68.3945 63.9904 68.3945C61.6506 68.3945 59.7538 66.7438 59.7538 64.7075Z" fill="#BBA390"/>
<path fill-rule="evenodd" clip-rule="evenodd" d="M83.4785 9.88879C84.0295 9.92163 84.4456 10.337 84.4079 10.8165L83.2312 25.7668L95.4163 26.5109L96.3544 12.2241C96.3859 11.7442 96.8584 11.3775 97.4098 11.4049C97.9612 11.4323 98.3826 11.8435 98.3511 12.3234L97.3552 27.4904C97.34 27.7228 97.2184 27.9402 97.0176 28.094C96.8169 28.2478 96.5537 28.3252 96.2868 28.3089L82.0953 27.4422C81.545 27.4086 81.13 26.9936 81.1677 26.5146L82.4125 10.6975C82.4503 10.218 82.9275 9.85594 83.4785 9.88879Z" fill="#BBA390"/>
<path fill-rule="evenodd" clip-rule="evenodd" d="M63.9903 27.4409L63.7828 26.5896C63.2425 26.6893 62.8975 27.1513 63.0121 27.6215C63.1267 28.0915 63.6573 28.3918 64.1975 28.2923L64.2002 28.2918L64.2143 28.2892L64.2764 28.2784C64.3325 28.2688 64.4175 28.2547 64.5285 28.2374C64.7505 28.2028 65.0759 28.1556 65.4817 28.1065C66.2947 28.0082 67.4226 27.9037 68.6824 27.8776C71.0539 27.8284 73.7111 28.063 75.6563 28.9966L75.1916 36.276C75.1609 36.7559 75.5831 37.1666 76.1346 37.1932C76.686 37.2199 77.1579 36.8525 77.1885 36.3726L77.6864 28.5725C77.7061 28.2648 77.5373 27.9711 77.2427 27.8001C74.7325 26.3438 71.2914 26.0825 68.6348 26.1375C67.2803 26.1656 66.0741 26.2777 65.2065 26.3826C64.772 26.4351 64.4206 26.486 64.1757 26.5242C64.0533 26.5433 63.9574 26.5592 63.8909 26.5706C63.8577 26.5762 63.8319 26.5808 63.8137 26.584L63.7923 26.5878L63.7861 26.589L63.7841 26.5894C63.7838 26.5894 63.7828 26.5896 63.9903 27.4409Z" fill="#BBA390"/>
</svg>
