<svg width="115" height="91" viewBox="0 0 115 91" fill="none" xmlns="http://www.w3.org/2000/svg">
<path fill-rule="evenodd" clip-rule="evenodd" d="M51.8718 16.8983C52.4209 16.9495 52.8184 17.3784 52.7596 17.8563L48.8861 49.331C48.8417 49.692 48.5444 49.991 48.1404 50.0813C47.7363 50.1715 47.3103 50.034 47.0716 49.7362L29.5445 27.8701C29.2286 27.4759 29.3396 26.9334 29.7926 26.6584C30.2455 26.3834 30.8689 26.4801 31.1849 26.8743L47.1822 46.832L50.771 17.671C50.8298 17.1931 51.3226 16.8471 51.8718 16.8983Z" fill="#BBA390"/>
<path fill-rule="evenodd" clip-rule="evenodd" d="M10.1405 35.7393C10.6382 35.5311 11.2357 35.7135 11.4749 36.1467L34.0963 77.1114L63.0654 72.6951C63.6094 72.6122 64.1276 72.9288 64.2229 73.4022C64.3182 73.8756 63.9544 74.3266 63.4104 74.4096L33.6955 78.9395C33.2544 79.0068 32.8156 78.8106 32.6216 78.4593L9.67229 36.9006C9.43307 36.4674 9.64268 35.9474 10.1405 35.7393Z" fill="#BBA390"/>
<path fill-rule="evenodd" clip-rule="evenodd" d="M29.813 26.5768C30.3635 26.5385 30.8455 26.8957 30.8896 27.3748L33.3475 54.0767C33.3805 54.4355 33.1564 54.7749 32.7835 54.9307C32.4107 55.0865 31.9661 55.0265 31.6651 54.7797L10.1236 37.1216C9.72159 36.792 9.70266 36.2413 10.0813 35.8914C10.46 35.5415 11.0929 35.5251 11.4949 35.8546L31.1466 51.9636L28.896 27.5138C28.8519 27.0347 29.2624 26.6152 29.813 26.5768Z" fill="#BBA390"/>
<path fill-rule="evenodd" clip-rule="evenodd" d="M33.3502 77.2258C33.8942 77.1429 34.4125 77.4594 34.5078 77.9329L35.8711 84.7057C35.9664 85.1791 35.6026 85.6302 35.0586 85.7131C34.5146 85.796 33.9964 85.4795 33.9011 85.006L32.5378 78.2332C32.4425 77.7598 32.8062 77.3087 33.3502 77.2258Z" fill="#BBA390"/>
<path fill-rule="evenodd" clip-rule="evenodd" d="M37.3163 58.4643C37.8132 58.2545 38.4114 58.435 38.6525 58.8674L45.5001 71.1503C45.7412 71.5828 45.5338 72.1034 45.0369 72.3132C44.54 72.523 43.9418 72.3425 43.7007 71.9101L36.8531 59.6272C36.612 59.1947 36.8194 58.6741 37.3163 58.4643Z" fill="#BBA390"/>
<path fill-rule="evenodd" clip-rule="evenodd" d="M51.0677 54.6432C51.5998 54.5142 52.1512 54.785 52.2994 55.248L56.8834 69.5681C57.0316 70.0311 56.7204 70.511 56.1884 70.64C55.6564 70.769 55.105 70.4982 54.9567 70.0352L50.3728 55.7151C50.2246 55.2521 50.5357 54.7722 51.0677 54.6432Z" fill="#BBA390"/>
<path fill-rule="evenodd" clip-rule="evenodd" d="M28.2599 20.5374C26.3292 20.8318 25.0382 22.4324 25.3764 24.1126C25.7146 25.7929 27.5539 26.9163 29.4846 26.622C31.4153 26.3277 32.7063 24.727 32.3681 23.0468C32.0299 21.3666 30.1906 20.2431 28.2599 20.5374ZM23.4064 24.413C22.8776 21.7859 24.8961 19.2832 27.9148 18.823C30.9335 18.3628 33.8093 20.1194 34.3381 22.7465C34.8669 25.3735 32.8484 27.8762 29.8297 28.3364C26.811 28.7966 23.9352 27.04 23.4064 24.413Z" fill="#BBA390"/>
<path fill-rule="evenodd" clip-rule="evenodd" d="M7.8026 30.0032C5.87192 30.2975 4.58096 31.8982 4.91916 33.5784C5.25737 35.2585 7.09667 36.382 9.02735 36.0877C10.958 35.7934 12.249 34.1927 11.9108 32.5125C11.5726 30.8324 9.73329 29.7089 7.8026 30.0032ZM2.94916 33.8787C2.42037 31.2517 4.43883 28.749 7.45751 28.2888C10.4762 27.8287 13.352 29.5852 13.8808 32.2122C14.4096 34.8392 12.3911 37.3419 9.37244 37.8021C6.35376 38.2622 3.47796 36.5057 2.94916 33.8787Z" fill="#BBA390"/>
<path fill-rule="evenodd" clip-rule="evenodd" d="M50.6037 10.7864C48.673 11.0808 47.382 12.6814 47.7202 14.3616C48.0584 16.0417 49.8977 17.1652 51.8284 16.8709C53.7591 16.5766 55.0501 14.9759 54.7119 13.2957C54.3737 11.6156 52.5344 10.4921 50.6037 10.7864ZM45.7502 14.6619C45.2214 12.0349 47.2399 9.53222 50.2586 9.07204C53.2773 8.61186 56.1531 10.3684 56.6819 12.9954C57.2107 15.6224 55.1922 18.1251 52.1735 18.5853C49.1548 19.0454 46.279 17.2889 45.7502 14.6619Z" fill="#BBA390"/>
<path fill-rule="evenodd" clip-rule="evenodd" d="M33.9011 85.0047C33.8058 84.5312 34.1695 84.0802 34.7135 83.9973L64.4285 79.4674C64.9725 79.3844 65.4907 79.701 65.586 80.1744C65.6813 80.6478 65.3175 81.0988 64.7735 81.1818L35.0586 85.7117C34.5146 85.7947 33.9964 85.4781 33.9011 85.0047Z" fill="#BBA390"/>
<path fill-rule="evenodd" clip-rule="evenodd" d="M76.3241 19.4858C76.8568 19.359 77.4067 19.6321 77.5524 20.0958L84.9856 43.7556L97.1752 22.7924C97.4246 22.3635 98.0262 22.1918 98.519 22.4088C99.0118 22.6258 99.2091 23.1494 98.9597 23.5783L85.5979 46.5574C85.4112 46.8786 85.0166 47.0666 84.6051 47.0303C84.1936 46.9941 83.8502 46.7412 83.7411 46.394L75.6232 20.5548C75.4775 20.0912 75.7913 19.6126 76.3241 19.4858Z" fill="#BBA390"/>
<path fill-rule="evenodd" clip-rule="evenodd" d="M98.4044 22.2852C98.9539 22.3338 99.3541 22.7608 99.2983 23.239L93.9478 69.1115C93.9025 69.4992 93.5666 69.8136 93.1254 69.8808L63.4105 74.4108C62.8665 74.4937 62.3482 74.1771 62.253 73.7037C62.1577 73.2303 62.5214 72.7793 63.0654 72.6963L92.0344 68.2801L97.3086 23.0632C97.3643 22.585 97.855 22.2367 98.4044 22.2852Z" fill="#BBA390"/>
<path fill-rule="evenodd" clip-rule="evenodd" d="M51.7988 16.9093C52.2953 16.6987 52.8939 16.8783 53.1359 17.3103L67.9133 43.6958L75.3881 20.1298C75.5351 19.6665 76.0858 19.3946 76.6182 19.5225C77.1505 19.6504 77.463 20.1297 77.316 20.593L69.1374 46.378C69.0267 46.7269 68.6795 46.9798 68.2654 47.013C67.8513 47.0463 67.4567 46.8531 67.2745 46.5278L51.338 18.0729C51.0961 17.6409 51.3024 17.1199 51.7988 16.9093Z" fill="#BBA390"/>
<path fill-rule="evenodd" clip-rule="evenodd" d="M92.7802 68.1662C93.3242 68.0833 93.8424 68.3999 93.9377 68.8733L95.301 75.6461C95.3963 76.1196 95.0325 76.5706 94.4885 76.6535C93.9445 76.7365 93.4263 76.4199 93.331 75.9465L91.9677 69.1736C91.8724 68.7002 92.2362 68.2492 92.7802 68.1662Z" fill="#BBA390"/>
<path fill-rule="evenodd" clip-rule="evenodd" d="M81.7223 51.6936C82.2716 51.744 82.67 52.1722 82.6122 52.6502L80.9698 66.2273C80.912 66.7053 80.4199 67.0519 79.8706 67.0016C79.3214 66.9513 78.923 66.523 78.9808 66.045L80.6232 52.468C80.681 51.99 81.1731 51.6433 81.7223 51.6936Z" fill="#BBA390"/>
<path fill-rule="evenodd" clip-rule="evenodd" d="M67.2976 52.1687C67.8483 52.1326 68.3284 52.4919 68.3699 52.9712L69.6522 67.7947C69.6936 68.2739 69.2808 68.6917 68.73 68.7278C68.1793 68.7639 67.6993 68.4046 67.6578 67.9253L66.3755 53.1018C66.334 52.6225 66.7469 52.2048 67.2976 52.1687Z" fill="#BBA390"/>
<path fill-rule="evenodd" clip-rule="evenodd" d="M75.4264 13.348C73.4957 13.6423 72.2047 15.243 72.5429 16.9232C72.8811 18.6034 74.7204 19.7269 76.6511 19.4326C78.5818 19.1382 79.8728 17.5375 79.5346 15.8573C79.1964 14.1771 77.3571 13.0536 75.4264 13.348ZM70.5729 17.2235C70.0441 14.5965 72.0626 12.0937 75.0813 11.6335C78.1 11.1734 80.9758 12.93 81.5046 15.557C82.0334 18.1841 80.0149 20.6868 76.9962 21.147C73.9775 21.6072 71.1017 19.8506 70.5729 17.2235Z" fill="#BBA390"/>
<path fill-rule="evenodd" clip-rule="evenodd" d="M98.3624 16.1976C96.4317 16.4919 95.1408 18.0926 95.479 19.7728C95.8172 21.453 97.6565 22.5765 99.5872 22.2822C101.518 21.9878 102.809 20.3872 102.471 18.7069C102.132 17.0267 100.293 15.9033 98.3624 16.1976ZM93.509 20.0731C92.9802 17.4461 94.9986 14.9433 98.0173 14.4832C101.036 14.023 103.912 15.7796 104.441 18.4066C104.969 21.0337 102.951 23.5364 99.9323 23.9966C96.9136 24.4568 94.0378 22.7002 93.509 20.0731Z" fill="#BBA390"/>
<path fill-rule="evenodd" clip-rule="evenodd" d="M50.6037 10.7864C48.673 11.0808 47.382 12.6814 47.7202 14.3616C48.0584 16.0417 49.8977 17.1652 51.8284 16.8709C53.7591 16.5766 55.0501 14.9759 54.7119 13.2957C54.3737 11.6156 52.5344 10.4921 50.6037 10.7864ZM45.7502 14.6619C45.2214 12.0349 47.2399 9.53222 50.2586 9.07204C53.2773 8.61186 56.1531 10.3684 56.6819 12.9954C57.2107 15.6224 55.1922 18.1251 52.1735 18.5853C49.1548 19.0454 46.279 17.2889 45.7502 14.6619Z" fill="#BBA390"/>
<path fill-rule="evenodd" clip-rule="evenodd" d="M63.6159 80.4754C63.5206 80.0019 63.8844 79.5509 64.4284 79.468L94.1433 74.9381C94.6873 74.8551 95.2056 75.1717 95.3008 75.6451C95.3961 76.1185 95.0324 76.5696 94.4884 76.6525L64.7735 81.1824C64.2295 81.2654 63.7112 80.9488 63.6159 80.4754Z" fill="#BBA390"/>
</svg>
