<svg width="111" height="113" viewBox="0 0 111 113" fill="none" xmlns="http://www.w3.org/2000/svg">
<path fill-rule="evenodd" clip-rule="evenodd" d="M36.9066 32.3774C33.8173 31.7558 30.7352 33.43 30.0216 36.1156C29.308 38.8013 31.2326 41.4831 34.322 42.1047C37.4113 42.7264 40.4934 41.0522 41.207 38.3666C41.9206 35.6809 39.9959 32.9991 36.9066 32.3774ZM28.073 35.7235C29.0357 32.1003 33.1928 29.8436 37.3572 30.6817C41.5216 31.5197 44.1183 35.1355 43.1555 38.7587C42.1928 42.3818 38.0357 44.6386 33.8714 43.8005C29.707 42.9625 27.1103 39.3467 28.073 35.7235Z" fill="#BBA390"/>
<path fill-rule="evenodd" clip-rule="evenodd" d="M28.6258 2.25323C29.1699 2.17091 29.6877 2.48806 29.7823 2.9616L36.5994 37.0926C36.694 37.5662 36.3296 38.0168 35.7854 38.0991C35.2413 38.1814 34.7235 37.8642 34.6289 37.3907L27.8118 3.25968C27.7172 2.78614 28.0817 2.33554 28.6258 2.25323Z" fill="#BBA390"/>
<path fill-rule="evenodd" clip-rule="evenodd" d="M64.3549 51.3659C64.6495 51.581 64.7763 51.9241 64.681 52.2484L62.1521 60.8491L68.909 67.5052C69.1598 67.7523 69.2287 68.1015 69.0868 68.4072C68.945 68.7129 68.6168 68.9226 68.2391 68.9488L58.0674 69.6552L53.1053 77.3367C52.9178 77.6271 52.5563 77.7988 52.1742 77.779C51.7922 77.7592 51.4566 77.5514 51.31 77.2438L47.3939 69.0298L37.4366 67.0261C37.0659 66.9515 36.7759 66.7002 36.6886 66.3779C36.6012 66.0556 36.7317 65.7181 37.025 65.5072L44.8474 59.884L43.8013 50.9888C43.7625 50.6586 43.9429 50.338 44.2664 50.1621C44.5898 49.9863 45.0001 49.9859 45.324 50.1611L54.0554 54.8839L63.2996 51.2399C63.6499 51.1018 64.0602 51.1508 64.3549 51.3659ZM62.2269 53.5735L54.3939 56.6612C54.0898 56.7811 53.7369 56.761 53.4534 56.6076L45.9983 52.5752L46.8915 60.1699C46.9255 60.4592 46.7912 60.7442 46.5336 60.9294L39.8595 65.7272L48.3457 67.4349C48.6602 67.4982 48.9203 67.6898 49.044 67.9493L52.3694 74.9242L56.5851 68.3981C56.7483 68.1455 57.0453 67.9801 57.3773 67.9571L66.0852 67.3524L60.3026 61.656C60.0833 61.4399 60.0011 61.1434 60.0832 60.8641L62.2269 53.5735Z" fill="#BBA390"/>
<path fill-rule="evenodd" clip-rule="evenodd" d="M28.641 19.1261C25.0239 18.3982 21.1415 20.3554 20.2589 23.6772L13.2891 49.908C12.8353 51.6158 13.0948 53.213 14.0583 54.5557C14.0586 54.556 14.0588 54.5564 14.0591 54.5567L45.1578 97.5834C45.1655 97.5939 45.1728 97.6046 45.1799 97.6155C47.0787 100.512 51.5264 101.407 54.6935 99.53C54.7045 99.5234 54.7156 99.5171 54.7269 99.511L90.9579 79.8372C94.3817 77.978 95.3631 74.2844 93.2247 71.3059L61.8065 27.5445C60.8423 26.2015 59.3056 25.297 57.3411 24.9017L28.641 19.1261ZM18.3103 23.2851C19.4511 18.9915 24.4392 16.494 29.0916 17.4303L57.7917 23.2059C60.2051 23.6915 62.2227 24.8394 63.5027 26.6222L94.9209 70.3836C97.6448 74.1777 96.3779 78.9456 92.0166 81.3138L55.8022 100.979C51.6777 103.41 45.9335 102.255 43.4537 98.4947L12.3645 55.4812L12.3629 55.479C11.0829 53.6962 10.7826 51.6154 11.3405 49.5159L18.3103 23.2851Z" fill="#BBA390"/>
</svg>
