<svg width="104" height="35" viewBox="0 0 104 35" fill="none" xmlns="http://www.w3.org/2000/svg">
<path d="M10.0629 7.07227H0V27.2478H10.0629C12.6313 27.2478 14.9505 26.1246 16.6372 24.2943C18.324 22.4639 19.359 19.9472 19.359 17.16C19.359 11.5858 15.1997 7.07227 10.0629 7.07227ZM12.4779 20.0928C11.7879 20.8415 10.8295 21.3199 9.77534 21.3199H5.65436V13.2081H9.96701C11.9796 13.2081 13.6088 14.9761 13.6088 17.16C13.6088 18.304 13.1871 19.344 12.4779 20.0928Z" fill="#FE8A90"/>
<path d="M22.0425 2.91195V8.73584H41.5931V0L22.0425 2.91195Z" fill="#FE8A90"/>
<path d="M41.5931 31.0962V25.2725H22.0425V34.0081L41.5931 31.0962Z" fill="#FE8A90"/>
<path d="M41.5931 14.0391H22.0425V19.8633H41.5931V14.0391Z" fill="#FE8A90"/>
<path d="M73.3335 7.07227C68.1967 7.07227 64.0374 11.5858 64.0374 17.16C64.0374 22.7343 68.1967 27.2478 73.3335 27.2478C78.4703 27.2478 82.6296 22.7343 82.6296 17.16C82.6296 11.5858 78.4512 7.07227 73.3335 7.07227ZM73.3335 21.3823C71.1868 21.3823 69.4425 19.4896 69.4425 17.16C69.4425 14.8305 71.1868 12.9377 73.3335 12.9377C75.4802 12.9377 77.2245 14.8305 77.2245 17.16C77.2245 19.4896 75.4802 21.3823 73.3335 21.3823Z" fill="#FE8A90"/>
<path d="M57.272 18.4288L62.313 20.5504C60.9713 24.6063 57.2912 27.4767 53.0169 27.2063C48.2634 26.9151 44.4491 22.6927 44.2766 17.5345C44.0657 11.8146 48.3017 7.07227 53.5536 7.07227C57.5979 7.07227 61.048 9.88021 62.313 13.7905L57.272 15.9121C56.7929 14.1857 55.2978 12.9169 53.5536 12.9169C51.3302 12.9169 49.5476 14.9345 49.6626 17.3889C49.7776 19.5728 51.4643 21.3408 53.4769 21.3824C55.2595 21.424 56.7737 20.176 57.272 18.4288Z" fill="#FE8A90"/>
<path d="M93.7277 7.07227C88.5908 7.07227 84.4315 11.5858 84.4315 17.16C84.4315 22.7343 88.5908 27.2478 93.7277 27.2478C98.8645 27.2478 103.024 22.7343 103.024 17.16C103.024 11.5858 98.8645 7.07227 93.7277 7.07227ZM93.7277 21.3823C91.5809 21.3823 89.8367 19.4896 89.8367 17.16C89.8367 14.8305 91.5809 12.9377 93.7277 12.9377C95.8744 12.9377 97.6186 14.8305 97.6186 17.16C97.6186 19.4896 95.8744 21.3823 93.7277 21.3823Z" fill="#FE8A90"/>
</svg>
