<svg width="151" height="35" viewBox="0 0 151 35" fill="none" xmlns="http://www.w3.org/2000/svg">
<path d="M31.3563 34.8071H29.2975H21.6259L19.1643 23.726L16.7026 34.8071H6.97416L0.675781 6.47578H8.34735L11.8384 22.1829L15.3295 6.47661H22.9991L26.4902 22.1837L29.9822 6.47744H37.6538L31.3563 34.8071ZM75.3174 34.8071H73.2576H66.8487L63.7538 20.8843L60.6637 34.8071H52.9931L59.2905 6.47496H66.9611L70.4522 22.1821L73.9442 6.47496H81.6148L75.3164 34.8071H75.3174ZM90.0472 34.8071H82.3757L90.1148 0H97.7778L97.3722 1.83152L97.3179 2.07268L96.7608 4.59951L96.3437 6.47744L90.0472 34.8071ZM46.0091 34.8071H38.3394L44.6368 6.47496H52.3074L46.0091 34.8071ZM144.451 34.8071H123.831L125.268 28.3297H145.881L144.453 34.8071H144.451ZM117.642 34.8071H97.0293L98.4663 28.3297H119.078L117.641 34.8071H117.642ZM146.891 23.823H126.274L127.711 17.3447H148.323L146.895 23.8222L146.891 23.823ZM120.091 23.823H99.4719L100.909 17.3447H121.528L120.092 23.8188L120.091 23.823ZM149.306 12.9574H128.689L130.126 6.4791H150.743L149.306 12.9565V12.9574ZM122.504 12.9574H101.892L103.332 6.47496H123.945L122.508 12.9524L122.504 12.9574Z" fill="#FF7A44"/>
</svg>
